<svg width="100" height="55" viewBox="0 0 100 55" fill="none" xmlns="http://www.w3.org/2000/svg">
<g filter="url(#filter0_i_56_7745)">
<path d="M5.08006 32.3151H28.3537V3.4675L15.0629 26.6805L1.7721 3.41933V33.7599L0 33.7118V0H1.7721L15.0629 23.2611L28.3537 0.0481587L30.1258 0V33.7599L5.08006 33.7118V32.3151ZM42.8854 32.3151H64.6235L52.1003 4.23805L38.9277 33.7599H37.0374L52.1003 0L67.1635 33.7599H42.8854V32.3151ZM78.6757 32.3151H96.9874L75.8403 2.5043V33.7599H74.0682V0.0481587H76.1357L98.2279 31.2075V0.0481587H100V33.7599H78.6757V32.3151Z" fill="#6681DF"/>
<path d="M21.0012 48.9586C21.0012 49.914 20.5349 50.6229 19.6024 51.0853C18.922 51.4243 18.0965 51.5938 17.1262 51.5938H12.7598C12.8858 51.2139 12.9614 50.5666 12.9866 49.6521C12.9866 47.7411 12.9866 46.2565 12.9866 45.1982C12.9866 44.14 12.9803 43.4928 12.9677 43.2564C12.9551 43.0201 12.9299 42.7941 12.8921 42.5784C12.8669 42.3626 12.8227 42.1571 12.7598 41.9619H17.0884C19.4827 41.9619 20.6798 42.789 20.6798 44.4431C20.6798 44.9876 20.4404 45.4705 19.9616 45.8917C19.5457 46.2514 19.048 46.4825 18.4683 46.5852C19.048 46.6983 19.5961 46.9449 20.1128 47.325C20.7051 47.808 21.0012 48.3522 21.0012 48.9586ZM19.5457 44.4431C19.5457 43.7136 19.1425 43.2102 18.336 42.9328C17.9075 42.789 17.4476 42.7171 16.9561 42.7171L14.1018 42.7325V46.2308H16.9561C17.4223 46.2308 17.876 46.1537 18.3171 45.9996C19.1362 45.7017 19.5457 45.1828 19.5457 44.4431ZM19.7537 48.9586C19.7284 48.2289 19.2685 47.6794 18.3738 47.3096C17.7941 47.0732 17.29 46.9551 16.8616 46.9551H14.1018V50.7462H17.0317C18.8715 50.7462 19.7788 50.1505 19.7537 48.9586ZM32.039 45.5065C33.1732 45.4962 34.0364 45.7839 34.6287 46.3695C35.1579 46.914 35.4163 47.6384 35.4037 48.5425H29.6762V48.6041C29.6636 49.2615 29.9472 49.8115 30.5268 50.2531C31.0561 50.6538 31.6988 50.8642 32.4549 50.8849C33.211 50.8951 33.8852 50.6591 34.4774 50.176L35.0256 50.9928C34.0427 51.4344 33.1543 51.6709 32.3604 51.7017C31.1884 51.7427 30.237 51.4499 29.5061 50.8233C28.8256 50.217 28.4917 49.4671 28.5043 48.5733C28.5169 47.7103 28.8571 46.9859 29.525 46.4003C30.1803 45.8249 31.0183 45.527 32.039 45.5065ZM34.0238 47.7257C33.8852 46.801 33.2173 46.3387 32.0201 46.3387C31.5539 46.3387 31.1254 46.462 30.7348 46.7085C30.3441 46.9551 30.0543 47.2942 29.8652 47.7257H34.0238ZM46.9072 47.14C46.8946 46.4517 46.4283 46.1281 45.5084 46.1691C45.2815 46.1794 45.0358 46.2205 44.7712 46.2924C44.5191 46.3541 44.2734 46.4363 44.034 46.539C43.8072 46.6417 43.5866 46.7599 43.3724 46.8935C43.1708 47.027 43.0069 47.1657 42.8809 47.3096V46.3849C43.5362 45.7582 44.4246 45.4346 45.5462 45.414C46.2645 45.4037 46.8441 45.5373 47.2852 45.8147C47.8019 46.1435 48.0602 46.6315 48.0602 47.2787V50.4534C48.0602 50.6899 48.1673 50.8079 48.3815 50.8079C48.4572 50.8079 48.7533 50.6538 49.27 50.3456V51.1777C48.8541 51.5375 48.4886 51.7171 48.1736 51.7171C47.5183 51.7171 47.1151 51.4653 46.9639 50.962C46.3842 51.4551 45.5966 51.7118 44.6011 51.7325C44.2986 51.7325 44.0214 51.6863 43.7693 51.5938C43.5173 51.5115 43.2968 51.3935 43.1078 51.2394C42.9187 51.0853 42.7738 50.9056 42.673 50.7C42.5722 50.4944 42.5218 50.2738 42.5218 50.0373C42.5218 49.5235 42.736 49.0972 43.1645 48.7582C43.5677 48.45 44.1033 48.2549 44.7712 48.1726C45.0232 48.1519 45.3257 48.1211 45.6785 48.0801C46.0313 48.0286 46.4409 47.9722 46.9072 47.9106V47.14ZM46.9639 50.1914V48.712C46.7748 48.7327 46.5165 48.7635 46.1889 48.8044C45.8738 48.8353 45.4958 48.8762 45.0547 48.9277C44.6389 48.9793 44.2923 49.0973 44.0151 49.2822C43.7504 49.4671 43.6181 49.6776 43.6181 49.914C43.6181 50.2016 43.7252 50.4433 43.9395 50.6384C44.1663 50.8233 44.4562 50.9158 44.809 50.9158C45.0736 50.9158 45.4453 50.8387 45.9242 50.6846C46.4157 50.5098 46.7623 50.3456 46.9639 50.1914ZM63.839 51.1315C62.9069 51.5837 62.2766 51.7788 61.9488 51.7171C61.7597 51.6863 61.6528 51.4142 61.6274 50.9004C60.8589 51.445 60.0148 51.7171 59.0945 51.7171C58.2126 51.7171 57.5823 51.4961 57.2043 51.0545C56.776 50.5714 56.5616 49.7238 56.5616 48.5116C56.5616 48.1827 56.5616 47.8697 56.5616 47.5716C56.5616 47.2736 56.5681 46.9911 56.5805 46.7239C56.5805 46.5493 56.5805 46.3901 56.5805 46.2462C56.5805 46.0921 56.587 45.9585 56.5994 45.8455C56.6124 45.7428 56.6183 45.6708 56.6183 45.6298C56.6183 45.5887 56.6183 45.5784 56.6183 45.5989H57.9036C57.8912 45.8661 57.8788 46.1435 57.8658 46.4311C57.8534 46.7188 57.8345 47.027 57.8091 47.3558C57.7967 47.5613 57.7843 47.7618 57.7713 47.9568C57.7713 48.1519 57.7778 48.3421 57.7902 48.527C57.8032 48.8868 57.8221 49.1998 57.8469 49.4671C57.8848 49.7238 57.9356 49.9347 57.9982 50.099C58.225 50.6437 58.6473 50.9211 59.2646 50.9312C59.9073 50.9413 60.4685 50.8079 60.9469 50.5305L61.5707 50.0681C61.5837 49.6058 61.6026 48.7274 61.6274 47.4329C61.6404 46.837 61.6463 46.3901 61.6463 46.0921C61.6593 45.7839 61.6652 45.6195 61.6652 45.5989H62.8939C62.8691 46.1332 62.8502 46.8267 62.8372 47.6794C62.8248 48.5217 62.8183 49.5341 62.8183 50.7154C62.8437 50.7361 62.8626 50.7462 62.875 50.7462C62.9128 50.7462 62.9636 50.7361 63.0262 50.7154C63.0894 50.6846 63.1526 50.6538 63.2152 50.6229C63.2784 50.5921 63.3352 50.5613 63.3854 50.5305C63.4486 50.4997 63.4929 50.4842 63.5177 50.4842C63.5431 50.5151 63.5809 50.5868 63.6311 50.7C63.6819 50.8026 63.751 50.9466 63.839 51.1315ZM74.6152 45.5835V46.2462H72.7627L72.6871 48.8661C72.6747 49.4002 72.6623 49.7546 72.6493 49.9294C72.6493 50.0937 72.6493 50.0889 72.6493 49.914C72.6493 50.479 72.7249 50.7617 72.8762 50.7617C72.9518 50.7617 73.0593 50.7207 73.1975 50.6384C73.3487 50.5459 73.4432 50.4944 73.481 50.4842C73.5064 50.5151 73.5442 50.5868 73.5944 50.7C73.6452 50.8026 73.7144 50.9466 73.8024 51.1315C73.0593 51.5322 72.4355 51.7273 71.931 51.7171C71.6416 51.6964 71.4963 51.2495 71.4963 50.3764C71.4963 50.3046 71.5152 49.8115 71.553 48.8969C71.566 48.5786 71.5849 47.7 71.6097 46.2616H70.5134C70.5263 46.2514 70.5323 46.1383 70.5323 45.9226V45.5989H71.6286V43.9962L72.7627 43.5955V45.5989C73.9855 45.5989 74.6028 45.5938 74.6152 45.5835ZM88.5528 45.6298L86.2656 50.2839C85.6731 51.4759 85.2384 52.2926 84.9613 52.7343C84.1922 53.9773 83.4804 54.6814 82.8253 54.8456C82.4343 54.9482 82.0184 54.9997 81.5778 54.9997C80.7709 54.9997 80.1536 54.8456 79.7253 54.5374L80.1034 53.7822C80.4685 54.0697 80.954 54.2137 81.5589 54.2137C81.7479 54.2137 81.9558 54.1882 82.1827 54.1367C82.6487 54.0341 83.1213 53.6796 83.6003 53.0733C84.0032 52.5903 84.3186 52.0716 84.5455 51.5168C83.9784 50.5204 83.4237 49.5341 82.882 48.5579C82.3398 47.5818 81.7857 46.6007 81.2186 45.6143H82.5985C82.8378 46.0459 83.1656 46.6623 83.5814 47.4637C83.9973 48.2549 84.5077 49.236 85.1125 50.4072C85.5532 49.5341 85.9442 48.7019 86.2845 47.9106C86.6371 47.1195 86.9396 46.3592 87.1918 45.6298C88.0737 45.6195 88.5274 45.6195 88.5528 45.6298Z" fill="black"/>
</g>
<defs>
<filter id="filter0_i_56_7745" x="0" y="0" width="100" height="59" filterUnits="userSpaceOnUse" color-interpolation-filters="sRGB">
<feFlood flood-opacity="0" result="BackgroundImageFix"/>
<feBlend mode="normal" in="SourceGraphic" in2="BackgroundImageFix" result="shape"/>
<feColorMatrix in="SourceAlpha" type="matrix" values="0 0 0 0 0 0 0 0 0 0 0 0 0 0 0 0 0 0 127 0" result="hardAlpha"/>
<feOffset dy="4"/>
<feGaussianBlur stdDeviation="2"/>
<feComposite in2="hardAlpha" operator="arithmetic" k2="-1" k3="1"/>
<feColorMatrix type="matrix" values="0 0 0 0 0 0 0 0 0 0 0 0 0 0 0 0 0 0 0.25 0"/>
<feBlend mode="normal" in2="shape" result="effect1_innerShadow_56_7745"/>
</filter>
</defs>
</svg>
