<svg width="100" height="37" viewBox="0 0 100 37" fill="none" xmlns="http://www.w3.org/2000/svg">
<rect width="100" height="37" rx="18.5" fill="#C4C4C4"/>
<path d="M37.3281 25H35.5508V12.6953H35.4727L32.0352 14.9805V13.2031L35.5508 10.8594H37.3281V25ZM46.6055 27.1289H45.082L49.6328 10.1953H51.1758L46.6055 27.1289ZM57.7969 23.7109L62.6211 18.6328C63.2526 17.9557 63.7344 17.4121 64.0664 17.002C64.4049 16.5853 64.6621 16.1849 64.8379 15.8008C65.0137 15.4167 65.1016 15.013 65.1016 14.5898C65.1016 14.1146 64.9779 13.6979 64.7305 13.3398C64.4831 12.9753 64.1445 12.6921 63.7148 12.4902C63.2917 12.2884 62.8164 12.1875 62.2891 12.1875C61.7357 12.1875 61.2507 12.3014 60.834 12.5293C60.4173 12.7507 60.0951 13.0599 59.8672 13.457C59.6458 13.8542 59.5352 14.3164 59.5352 14.8438H57.875C57.8685 14.0234 58.0573 13.2975 58.4414 12.666C58.832 12.0345 59.3691 11.543 60.0527 11.1914C60.7363 10.8398 61.5013 10.6641 62.3477 10.6641C63.1875 10.6641 63.9395 10.8366 64.6035 11.1816C65.2741 11.5267 65.7982 11.9987 66.1758 12.5977C66.5534 13.1966 66.7422 13.8607 66.7422 14.5898C66.7357 15.1302 66.6348 15.6478 66.4395 16.1426C66.2507 16.6309 65.9251 17.1745 65.4629 17.7734C65.0007 18.3724 64.3464 19.1081 63.5 19.9805L60.2578 23.3203V23.4375H66.9961V25H57.8164L57.7969 23.7109Z" fill="white"/>
</svg>
