<svg width="16" height="16" viewBox="0 0 16 16" fill="none" xmlns="http://www.w3.org/2000/svg">
<path d="M13.8067 11.1399L12.1933 9.52659C12.1314 9.4641 12.0576 9.4145 11.9764 9.38066C11.8951 9.34681 11.808 9.32939 11.72 9.32939C11.632 9.32939 11.5449 9.34681 11.4636 9.38066C11.3824 9.4145 11.3086 9.4641 11.2467 9.52659L8.86 11.9133C8.79821 11.9755 8.74933 12.0494 8.71615 12.1306C8.68298 12.2119 8.66616 12.2988 8.66667 12.3866V13.9999C8.66667 14.1767 8.7369 14.3463 8.86193 14.4713C8.98695 14.5963 9.15652 14.6666 9.33333 14.6666H10.9467C11.0344 14.6671 11.1214 14.6503 11.2026 14.6171C11.2838 14.5839 11.3577 14.535 11.42 14.4733L13.8067 12.0866C13.8692 12.0246 13.9187 11.9509 13.9526 11.8696C13.9864 11.7884 14.0039 11.7013 14.0039 11.6133C14.0039 11.5252 13.9864 11.4381 13.9526 11.3569C13.9187 11.2756 13.8692 11.2019 13.8067 11.1399V11.1399ZM10.6667 13.3333H10V12.6666L11.72 10.9466L12.3867 11.6133L10.6667 13.3333ZM6.66667 13.3333H4C3.82319 13.3333 3.65362 13.263 3.5286 13.138C3.40357 13.013 3.33333 12.8434 3.33333 12.6666V3.33325C3.33333 3.15644 3.40357 2.98687 3.5286 2.86185C3.65362 2.73682 3.82319 2.66659 4 2.66659H7.33333V4.66659C7.33333 5.19702 7.54405 5.70573 7.91912 6.0808C8.29419 6.45587 8.8029 6.66659 9.33333 6.66659H11.3333V7.33325C11.3333 7.51006 11.4036 7.67963 11.5286 7.80466C11.6536 7.92968 11.8232 7.99992 12 7.99992C12.1768 7.99992 12.3464 7.92968 12.4714 7.80466C12.5964 7.67963 12.6667 7.51006 12.6667 7.33325V5.99992C12.6667 5.99992 12.6667 5.99992 12.6667 5.95992C12.6597 5.89868 12.6463 5.83834 12.6267 5.77992V5.71992C12.5946 5.65137 12.5519 5.58836 12.5 5.53325L8.5 1.53325C8.44489 1.4814 8.38188 1.43864 8.31333 1.40659C8.29343 1.40376 8.27323 1.40376 8.25333 1.40659L8.04 1.33325H4C3.46957 1.33325 2.96086 1.54397 2.58579 1.91904C2.21071 2.29411 2 2.80282 2 3.33325V12.6666C2 13.197 2.21071 13.7057 2.58579 14.0808C2.96086 14.4559 3.46957 14.6666 4 14.6666H6.66667C6.84348 14.6666 7.01305 14.5963 7.13807 14.4713C7.26309 14.3463 7.33333 14.1767 7.33333 13.9999C7.33333 13.8231 7.26309 13.6535 7.13807 13.5285C7.01305 13.4035 6.84348 13.3333 6.66667 13.3333ZM8.66667 3.60659L10.3933 5.33325H9.33333C9.15652 5.33325 8.98695 5.26301 8.86193 5.13799C8.7369 5.01297 8.66667 4.8434 8.66667 4.66659V3.60659ZM5.33333 9.33325H9.33333C9.51014 9.33325 9.67971 9.26301 9.80474 9.13799C9.92976 9.01297 10 8.8434 10 8.66659C10 8.48977 9.92976 8.32021 9.80474 8.19518C9.67971 8.07016 9.51014 7.99992 9.33333 7.99992H5.33333C5.15652 7.99992 4.98695 8.07016 4.86193 8.19518C4.7369 8.32021 4.66667 8.48977 4.66667 8.66659C4.66667 8.8434 4.7369 9.01297 4.86193 9.13799C4.98695 9.26301 5.15652 9.33325 5.33333 9.33325ZM5.33333 6.66659H6C6.17681 6.66659 6.34638 6.59635 6.4714 6.47132C6.59643 6.3463 6.66667 6.17673 6.66667 5.99992C6.66667 5.82311 6.59643 5.65354 6.4714 5.52851C6.34638 5.40349 6.17681 5.33325 6 5.33325H5.33333C5.15652 5.33325 4.98695 5.40349 4.86193 5.52851C4.7369 5.65354 4.66667 5.82311 4.66667 5.99992C4.66667 6.17673 4.7369 6.3463 4.86193 6.47132C4.98695 6.59635 5.15652 6.66659 5.33333 6.66659ZM6.66667 10.6666H5.33333C5.15652 10.6666 4.98695 10.7368 4.86193 10.8618C4.7369 10.9869 4.66667 11.1564 4.66667 11.3333C4.66667 11.5101 4.7369 11.6796 4.86193 11.8047C4.98695 11.9297 5.15652 11.9999 5.33333 11.9999H6.66667C6.84348 11.9999 7.01305 11.9297 7.13807 11.8047C7.26309 11.6796 7.33333 11.5101 7.33333 11.3333C7.33333 11.1564 7.26309 10.9869 7.13807 10.8618C7.01305 10.7368 6.84348 10.6666 6.66667 10.6666Z" fill="#555555"/>
</svg>
