<svg width="16" height="16" viewBox="0 0 16 16" fill="none" xmlns="http://www.w3.org/2000/svg">
<path d="M7.9987 13.3334H3.33203C3.15522 13.3334 2.98565 13.2631 2.86063 13.1381C2.7356 13.0131 2.66536 12.8435 2.66536 12.6667V3.33337C2.66536 3.15656 2.7356 2.98699 2.86063 2.86197C2.98565 2.73695 3.15522 2.66671 3.33203 2.66671H6.66536V4.66671C6.66536 5.19714 6.87608 5.70585 7.25115 6.08092C7.62622 6.45599 8.13493 6.66671 8.66536 6.66671H10.6654V7.33337C10.6654 7.51019 10.7356 7.67975 10.8606 7.80478C10.9857 7.9298 11.1552 8.00004 11.332 8.00004C11.5088 8.00004 11.6784 7.9298 11.8034 7.80478C11.9285 7.67975 11.9987 7.51019 11.9987 7.33337V6.00004C11.9987 6.00004 11.9987 6.00004 11.9987 5.96004C11.9918 5.8988 11.9783 5.83846 11.9587 5.78004V5.72004C11.9266 5.65149 11.8839 5.58848 11.832 5.53337V5.53337L7.83203 1.53337C7.77692 1.48152 7.71391 1.43876 7.64536 1.40671C7.62546 1.40388 7.60526 1.40388 7.58536 1.40671C7.51764 1.36787 7.44285 1.34294 7.36536 1.33337H3.33203C2.8016 1.33337 2.29289 1.54409 1.91782 1.91916C1.54275 2.29423 1.33203 2.80294 1.33203 3.33337V12.6667C1.33203 13.1971 1.54275 13.7058 1.91782 14.0809C2.29289 14.456 2.8016 14.6667 3.33203 14.6667H7.9987C8.17551 14.6667 8.34508 14.5965 8.4701 14.4714C8.59513 14.3464 8.66536 14.1769 8.66536 14C8.66536 13.8232 8.59513 13.6537 8.4701 13.5286C8.34508 13.4036 8.17551 13.3334 7.9987 13.3334ZM7.9987 3.60671L9.72536 5.33337H8.66536C8.48855 5.33337 8.31898 5.26314 8.19396 5.13811C8.06894 5.01309 7.9987 4.84352 7.9987 4.66671V3.60671ZM4.66536 5.33337C4.48855 5.33337 4.31898 5.40361 4.19396 5.52864C4.06894 5.65366 3.9987 5.82323 3.9987 6.00004C3.9987 6.17685 4.06894 6.34642 4.19396 6.47145C4.31898 6.59647 4.48855 6.66671 4.66536 6.66671H5.33203C5.50884 6.66671 5.67841 6.59647 5.80344 6.47145C5.92846 6.34642 5.9987 6.17685 5.9987 6.00004C5.9987 5.82323 5.92846 5.65366 5.80344 5.52864C5.67841 5.40361 5.50884 5.33337 5.33203 5.33337H4.66536ZM14.472 13.5267L13.692 12.7534C13.9413 12.3182 14.0411 11.8133 13.9761 11.316C13.9111 10.8187 13.6848 10.3565 13.332 10V10C13.0074 9.66382 12.589 9.43317 12.1314 9.33813C11.6738 9.2431 11.1981 9.28808 10.7665 9.46723C10.3348 9.64638 9.96707 9.95138 9.71121 10.3425C9.45535 10.7336 9.32322 11.1927 9.33203 11.66C9.32974 12.0622 9.43261 12.4579 9.63045 12.808C9.82828 13.1581 10.1142 13.4504 10.4599 13.6559C10.8055 13.8614 11.1989 13.973 11.601 13.9796C12.003 13.9861 12.3998 13.8875 12.752 13.6934L13.5254 14.4734C13.5873 14.5359 13.6611 14.5855 13.7423 14.6193C13.8236 14.6531 13.9107 14.6706 13.9987 14.6706C14.0867 14.6706 14.1738 14.6531 14.2551 14.6193C14.3363 14.5855 14.4101 14.5359 14.472 14.4734C14.5345 14.4114 14.5841 14.3377 14.618 14.2564C14.6518 14.1752 14.6692 14.088 14.6692 14C14.6692 13.912 14.6518 13.8249 14.618 13.7437C14.5841 13.6624 14.5345 13.5887 14.472 13.5267V13.5267ZM12.3587 12.36C12.1683 12.5391 11.9167 12.6388 11.6554 12.6388C11.394 12.6388 11.1424 12.5391 10.952 12.36C10.7685 12.1732 10.6656 11.9219 10.6654 11.66C10.664 11.5285 10.6893 11.3981 10.7397 11.2767C10.7901 11.1552 10.8646 11.0452 10.9587 10.9534C11.1364 10.7766 11.3748 10.6741 11.6254 10.6667C11.7601 10.6584 11.8952 10.6781 12.022 10.7245C12.1488 10.7708 12.2647 10.8429 12.3624 10.9362C12.46 11.0295 12.5373 11.1419 12.5895 11.2665C12.6416 11.391 12.6675 11.525 12.6654 11.66C12.6599 11.9248 12.5496 12.1765 12.3587 12.36V12.36ZM8.66536 8.00004H4.66536C4.48855 8.00004 4.31898 8.07028 4.19396 8.1953C4.06894 8.32033 3.9987 8.4899 3.9987 8.66671C3.9987 8.84352 4.06894 9.01309 4.19396 9.13811C4.31898 9.26314 4.48855 9.33337 4.66536 9.33337H8.66536C8.84218 9.33337 9.01174 9.26314 9.13677 9.13811C9.26179 9.01309 9.33203 8.84352 9.33203 8.66671C9.33203 8.4899 9.26179 8.32033 9.13677 8.1953C9.01174 8.07028 8.84218 8.00004 8.66536 8.00004ZM7.33203 12C7.50884 12 7.67841 11.9298 7.80344 11.8048C7.92846 11.6798 7.9987 11.5102 7.9987 11.3334C7.9987 11.1566 7.92846 10.987 7.80344 10.862C7.67841 10.7369 7.50884 10.6667 7.33203 10.6667H4.66536C4.48855 10.6667 4.31898 10.7369 4.19396 10.862C4.06894 10.987 3.9987 11.1566 3.9987 11.3334C3.9987 11.5102 4.06894 11.6798 4.19396 11.8048C4.31898 11.9298 4.48855 12 4.66536 12H7.33203Z" fill="#555555"/>
</svg>
