<svg width="20" height="20" viewBox="0 0 20 20" fill="none" xmlns="http://www.w3.org/2000/svg">
<path d="M14.9998 9.01667C14.7788 9.01667 14.5669 9.10447 14.4106 9.26075C14.2543 9.41703 14.1665 9.62899 14.1665 9.85V15.8333C14.1665 16.0543 14.0787 16.2663 13.9224 16.4226C13.7661 16.5789 13.5542 16.6667 13.3332 16.6667H4.1665C3.94549 16.6667 3.73353 16.5789 3.57725 16.4226C3.42097 16.2663 3.33317 16.0543 3.33317 15.8333V6.66667C3.33317 6.44565 3.42097 6.23369 3.57725 6.07741C3.73353 5.92113 3.94549 5.83333 4.1665 5.83333H10.1498C10.3709 5.83333 10.5828 5.74554 10.7391 5.58926C10.8954 5.43298 10.9832 5.22102 10.9832 5C10.9832 4.77899 10.8954 4.56703 10.7391 4.41075C10.5828 4.25447 10.3709 4.16667 10.1498 4.16667H4.1665C3.50346 4.16667 2.86758 4.43006 2.39874 4.8989C1.9299 5.36774 1.6665 6.00363 1.6665 6.66667V15.8333C1.6665 16.4964 1.9299 17.1323 2.39874 17.6011C2.86758 18.0699 3.50346 18.3333 4.1665 18.3333H13.3332C13.9962 18.3333 14.6321 18.0699 15.1009 17.6011C15.5698 17.1323 15.8332 16.4964 15.8332 15.8333V9.85C15.8332 9.62899 15.7454 9.41703 15.5891 9.26075C15.4328 9.10447 15.2209 9.01667 14.9998 9.01667ZM18.2665 2.18333C18.1819 1.97971 18.0201 1.8179 17.8165 1.73333C17.7163 1.69063 17.6087 1.66798 17.4998 1.66667H12.4998C12.2788 1.66667 12.0669 1.75447 11.9106 1.91075C11.7543 2.06703 11.6665 2.27899 11.6665 2.5C11.6665 2.72102 11.7543 2.93298 11.9106 3.08926C12.0669 3.24554 12.2788 3.33333 12.4998 3.33333H15.4915L6.90817 11.9083C6.83006 11.9858 6.76807 12.078 6.72576 12.1795C6.68345 12.2811 6.66167 12.39 6.66167 12.5C6.66167 12.61 6.68345 12.7189 6.72576 12.8205C6.76807 12.922 6.83006 13.0142 6.90817 13.0917C6.98564 13.1698 7.07781 13.2318 7.17936 13.2741C7.28091 13.3164 7.38983 13.3382 7.49984 13.3382C7.60985 13.3382 7.71877 13.3164 7.82032 13.2741C7.92187 13.2318 8.01404 13.1698 8.0915 13.0917L16.6665 4.50833V7.5C16.6665 7.72102 16.7543 7.93298 16.9106 8.08926C17.0669 8.24554 17.2788 8.33333 17.4998 8.33333C17.7209 8.33333 17.9328 8.24554 18.0891 8.08926C18.2454 7.93298 18.3332 7.72102 18.3332 7.5V2.5C18.3319 2.3911 18.3092 2.28352 18.2665 2.18333Z" fill="black"/>
</svg>
