
<svg width="30" height="30" viewBox="0 0 30 30" fill="none" xmlns="http://www.w3.org/2000/svg">
<path d="M11.0684 26.963C13.6194 27.8169 16.3791 27.8172 18.9303 26.9639C18.6062 27.068 18.2591 26.8897 18.155 26.5656C18.1346 26.5022 18.1247 26.4358 18.1255 26.3692C18.1255 25.9474 18.1412 24.6037 18.1412 22.9317C18.209 22.075 17.901 21.231 17.2974 20.6192C20.0787 20.3067 23.0005 19.2442 23.0005 14.4474C23.021 13.2045 22.5622 12.0015 21.7193 11.088C22.1015 10.0083 22.0567 8.82335 21.5943 7.7755C21.5943 7.7755 20.5474 7.43175 18.1568 9.05675C16.1114 8.4942 13.9522 8.4942 11.9068 9.05675C9.51613 7.4474 8.46929 7.7755 8.46929 7.7755C8.00682 8.82335 7.96211 10.0083 8.34429 11.088C7.50388 12.0031 7.04546 13.205 7.06304 14.4474C7.06304 19.2286 9.9693 20.3067 12.7505 20.6192C12.2909 21.0615 12.0077 21.6556 11.9536 22.2911C10.6664 23.0125 9.03804 22.5537 8.31668 21.2665C8.31547 21.2643 8.31424 21.2621 8.31303 21.2599C7.91973 20.5449 7.20239 20.0667 6.39112 19.9787C5.34428 19.9943 5.96928 20.5724 6.40676 20.8068C6.97082 21.2826 7.41057 21.8886 7.68803 22.5724C7.93803 23.2755 8.75053 24.6193 11.8911 24.0412C11.8911 25.0881 11.9068 26.0724 11.9068 26.3693C11.9068 26.693 11.675 27.0583 11.0684 26.963Z" fill="#8785FF"/>
<path d="M15 2.60352C8.09646 2.60352 2.5 8.19998 2.5 15.1035C2.5 20.6322 6.09336 25.3144 11.0689 26.9633C11.6747 27.0578 11.9063 26.693 11.9063 26.3695C11.9063 26.0726 11.8906 25.0883 11.8906 24.0413C8.75 24.6195 7.93748 23.2757 7.68753 22.5726C7.41005 21.8888 6.97029 21.2829 6.40625 20.807C5.96878 20.5726 5.34378 19.9945 6.39061 19.9788C7.20185 20.0669 7.91924 20.5451 8.31254 21.2601C8.31376 21.2623 8.31497 21.2645 8.3162 21.2667C9.03756 22.5539 10.6658 23.0127 11.9531 22.2913C12.0072 21.6559 12.2904 21.0617 12.75 20.6195C9.9688 20.307 7.06254 19.2288 7.06254 14.4476C7.04491 13.2052 7.50336 12.0033 8.34374 11.0882C7.96158 10.0085 8.00629 8.82353 8.46878 7.7757C8.46878 7.7757 9.5156 7.44757 11.9063 9.05698C13.9516 8.49439 16.1109 8.49439 18.1563 9.05698C20.5469 7.43192 21.5938 7.7757 21.5938 7.7757C22.0562 8.82353 22.1009 10.0084 21.7188 11.0882C22.5616 12.0018 23.0205 13.2047 23 14.4476C23 19.2444 20.0781 20.307 17.2969 20.6195C17.9005 21.2312 18.2085 22.0752 18.1406 22.932C18.1406 24.6039 18.125 25.9476 18.125 26.3695C18.1242 26.4361 18.1341 26.5024 18.1544 26.5658C18.2584 26.8893 18.6047 27.0672 18.9282 26.9642C23.9053 25.3162 27.5 20.6333 27.5 15.1035C27.5 8.19998 21.9035 2.60352 15 2.60352Z" fill="black"/>
</svg>
