
<svg width="20" height="20" viewBox="0 0 20 20" fill="none" xmlns="http://www.w3.org/2000/svg">
<path d="M16.2008 10.8328C16.0175 10.8328 15.8258 10.7745 15.6425 10.7328C15.2712 10.651 14.9064 10.5424 14.5508 10.4078C14.1642 10.2672 13.7393 10.2745 13.3577 10.4283C12.9762 10.5822 12.6651 10.8717 12.4841 11.2411L12.3008 11.6161C11.4892 11.1646 10.7433 10.6038 10.0842 9.94948C9.42979 9.29033 8.869 8.54448 8.41748 7.73282L8.76748 7.49948C9.13696 7.31858 9.42647 7.00742 9.58031 6.62589C9.73416 6.24436 9.74146 5.81941 9.60082 5.43282C9.4685 5.0765 9.35993 4.71181 9.27582 4.34115C9.23415 4.15782 9.20082 3.96615 9.17582 3.77448C9.07462 3.1875 8.76717 2.65593 8.30883 2.27552C7.8505 1.8951 7.2714 1.69082 6.67582 1.69948H4.17582C3.81668 1.69611 3.46102 1.77016 3.13307 1.91659C2.80512 2.06302 2.51257 2.2784 2.27534 2.54805C2.03811 2.81771 1.86176 3.13531 1.75831 3.47924C1.65485 3.82318 1.62672 4.18537 1.67582 4.54115C2.11976 8.0323 3.71417 11.276 6.20719 13.76C8.70021 16.244 11.9497 17.8266 15.4425 18.2578H15.7592C16.3737 18.2587 16.967 18.0333 17.4258 17.6245C17.6895 17.3887 17.9001 17.0996 18.0437 16.7764C18.1874 16.4532 18.2608 16.1032 18.2592 15.7495V13.2495C18.2489 12.6706 18.0382 12.1133 17.6628 11.6725C17.2874 11.2318 16.7707 10.935 16.2008 10.8328ZM16.6175 15.8328C16.6173 15.9511 16.592 16.0681 16.5431 16.1758C16.4943 16.2836 16.423 16.3797 16.3342 16.4578C16.2413 16.5387 16.1325 16.599 16.0147 16.6349C15.897 16.6708 15.773 16.6814 15.6508 16.6662C12.5299 16.266 9.63101 14.8382 7.41141 12.6081C5.19181 10.3779 3.77783 7.47226 3.39248 4.34948C3.37922 4.22742 3.39084 4.10393 3.42665 3.98648C3.46246 3.86903 3.52171 3.76006 3.60082 3.66615C3.67891 3.57726 3.77503 3.50602 3.8828 3.45716C3.99056 3.40831 4.1075 3.38297 4.22582 3.38282H6.72582C6.91961 3.3785 7.10884 3.44188 7.26094 3.56204C7.41304 3.6822 7.51849 3.85162 7.55915 4.04115C7.59248 4.26893 7.63415 4.49393 7.68415 4.71615C7.78042 5.15544 7.90853 5.58713 8.06748 6.00782L6.90082 6.54948C6.80106 6.59525 6.71134 6.66027 6.63678 6.74081C6.56223 6.82135 6.50432 6.91583 6.46638 7.01881C6.42843 7.1218 6.41121 7.23126 6.41569 7.34092C6.42017 7.45058 6.44627 7.55827 6.49248 7.65782C7.69182 10.2268 9.75685 12.2918 12.3258 13.4912C12.5287 13.5745 12.7563 13.5745 12.9592 13.4912C13.0631 13.454 13.1586 13.3965 13.2401 13.3221C13.3217 13.2478 13.3876 13.1579 13.4342 13.0578L13.9508 11.8912C14.3816 12.0452 14.8213 12.1732 15.2675 12.2745C15.4897 12.3245 15.7147 12.3662 15.9425 12.3995C16.132 12.4401 16.3014 12.5456 16.4216 12.6977C16.5418 12.8498 16.6051 13.039 16.6008 13.2328L16.6175 15.8328Z" fill="#5066B0"/>
</svg>
